<?xml version="1.0" encoding="UTF-8" standalone="no"?>
<!-- Created with Inkscape (http://www.inkscape.org/) -->

<svg
   xmlns:dc="http://purl.org/dc/elements/1.1/"
   xmlns:cc="http://creativecommons.org/ns#"
   xmlns:rdf="http://www.w3.org/1999/02/22-rdf-syntax-ns#"
   xmlns:svg="http://www.w3.org/2000/svg"
   xmlns="http://www.w3.org/2000/svg"
   xmlns:sodipodi="http://sodipodi.sourceforge.net/DTD/sodipodi-0.dtd"
   xmlns:inkscape="http://www.inkscape.org/namespaces/inkscape"
   width="210mm"
   height="297mm"
   viewBox="0 0 744.09448819 1052.3622047"
   id="svg7687"
   version="1.1"
   inkscape:version="0.91 r13725"
   sodipodi:docname="firestone-letters-flat.svg">
  <defs
     id="defs7689" />
  <sodipodi:namedview
     id="base"
     pagecolor="#ffffff"
     bordercolor="#666666"
     borderopacity="1.0"
     inkscape:pageopacity="0.0"
     inkscape:pageshadow="2"
     inkscape:zoom="0.35"
     inkscape:cx="145.43245"
     inkscape:cy="892.74629"
     inkscape:document-units="px"
     inkscape:current-layer="layer1"
     showgrid="false"
     showguides="true"
     inkscape:guide-bbox="true"
     inkscape:window-width="1920"
     inkscape:window-height="983"
     inkscape:window-x="0"
     inkscape:window-y="27"
     inkscape:window-maximized="1">
    <sodipodi:guide
       position="-1782.8572,1014.2857"
       orientation="0,1"
       id="guide8257" />
  </sodipodi:namedview>
  <metadata
     id="metadata7692">
    <rdf:RDF>
      <cc:Work
         rdf:about="">
        <dc:format>image/svg+xml</dc:format>
        <dc:type
           rdf:resource="http://purl.org/dc/dcmitype/StillImage" />
        <dc:title></dc:title>
      </cc:Work>
    </rdf:RDF>
  </metadata>
  <g
     inkscape:label="Layer 1"
     inkscape:groupmode="layer"
     id="layer1">
    <path
       style="fill:#ffcc00"
       d="m 556.29917,35.684158 c -6.0791,-5.3376 -6.8521,-8.36283 -6.8521,-26.8186304 l 0,-16.3454 -3.0449,-3.4078996 -3.045,-3.4079 -6.2073,1.9567 -6.2075,1.9567 0,12.5983996 c 0,14.4365004 0.9571,18.8111004 5.0497,23.0830004 3.4093,3.55843 4.8207,2.6866 -13.9292,8.60413 -14.4434,4.5583 -15.0319,4.5227 -19.8485,-1.2016 l -2.8387,-3.3736 0,-22.3519304 0,-22.3519996 -4.3183,-5.1577 -4.3182,-5.1577 15.0365,-5.6064 c 8.27,-3.0835 15.2968,-5.6063 15.6151,-5.6063 0.3181,0 2.3877,2.627 4.5991,5.8378 l 4.0208,5.8379 10.8034,-4.1895 c 21.8538,-8.4747 31.2653,-7.3402 38.0228,4.5838 2.5795,4.5518 2.7307,5.757 2.9027,23.1431996 0.2079,21.0198004 0.5022,22.7907004 4.3872,26.3912004 1.5663,1.4515 2.6403,2.8469 2.3866,3.1005 -0.2537,0.2537 -6.7258,2.90383 -14.3824,5.88903 l -13.921,5.4279 z"
       id="path5521-92"
       inkscape:connector-curvature="0"
       sodipodi:nodetypes="sscccccscsscccccssscscsccccs" />
    <path
       style="fill:#ffcc00"
       d="m 362.58657,36.112096 c -11.8284,-3.1433 -23.096,-8.9998 -27.7294,-14.4129 -13.4862,-15.755501 -13.772,-31.9101 -0.767,-43.3575 5.4411,-4.7895 18.6399,-11.5322 28.7469,-14.6856 7.858,-2.4518 13.2162,-1.3945 27.697,5.4651 11.0355,5.2276 21.3351,13.791 23.9086,19.8784 1.9657,4.649599 1.8807,15.981799 -0.1718,22.8932 -2.1939,7.3876 -8.6464,13.0271 -22.8388,19.961 -13.1987,6.4484 -17.9597,7.1512 -28.8455,4.2583 z m 16.9274,-23.3676 c 2.2604,-5.409801 1.9721,-13.22680095 -0.691,-18.727801 -2.3131,-4.778299 -11.0597,-13.418099 -13.5839,-13.418099 -2.0358,0 -3.9587,6.8271 -3.9587,14.054599 0,7.9728 3.0651,14.2301 9.1186,18.615201 5.7617,4.1738 7.1865,4.0918 9.115,-0.5239 z"
       id="path5521-5"
       inkscape:connector-curvature="0"
       sodipodi:nodetypes="ssscsssssccsssc" />
    <path
       style="fill:#ffcc00"
       d="m 60.817407,28.558463 c -9.2795,-5.664 -17.6066,-10.7392 -18.5047,-11.2784 -1.3383,-0.8035 -0.844,-1.7757 2.7419,-5.3914 l 4.3745,-4.4111005 12.3649,7.1627005 c 9.2206,5.3414 13.0213,6.998 14.9464,6.5148 1.5857,-0.398 2.5817,-1.4474 2.5817,-2.7204 0,-1.5122 -4.7157,-4.9268 -17.4417,-12.6298005 -17.7527,-10.7458 -21.7447,-14.1336 -21.7447,-18.4539995 0,-3.905 4.6778,-7.5658 23.2019,-18.1583 l 17.4451,-9.9756 6.6172,3.4679 c 3.6393,1.9073 12.122703,6.5503 18.852003,10.318 l 12.2349,6.8502 -4.2744,4.174 -4.2746,4.1739 -10.9672,-6.2096 c -10.789703,-6.1093 -15.294503,-7.0973 -15.294503,-3.3546 0,2.3425 2.4244,4.248 17.448203,13.7133995 7.7547,4.8857 15.3382,10.122 16.8524,11.636 6.1705,6.1705005 4.3376,11.0742005 -6.6393,17.7621005 -7.1698,4.3684 -32.127803,17.3604 -33.054703,17.2067 -0.3264,-0.055 -8.1858,-4.7326 -17.4653,-10.3965 z"
       id="path5521-40"
       inkscape:connector-curvature="0"
       sodipodi:nodetypes="ssccsssssscssccccsscscs" />
    <path
       style="fill:#ffcc00"
       d="m -82.201815,36.865865 c -16.1335,-4.0023 -30.195005,-20.20941 -30.182305,-34.7876099 0.011,-8.1148 1.5865,-13.2162001 5.8038,-18.7455001 8.039105,-10.54 22.171205,-16.9132 43.138705,-19.4544 l 11.3094,-1.3707 4.0527,4.5668 c 2.2289,2.5117 7.9958,9.3894 12.8154,15.2837 l 8.7627,10.7170001 -20.0639,9.672 c -11.0351,5.3195 -19.9222,10.1617999 -19.7492,10.7604999 0.1731,0.5987 1.9999,1.9449 4.0596,2.9916 5.0132,2.5477 13.8696,2.4312 23.7713,-0.3127 4.4049,-1.2206 8.1619,-2.0664 8.3488,-1.8794 0.187,0.187 -2.206,4.492 -5.3177,9.5668 -7.6732,12.51391 -9.7029,13.49581 -28.4999,13.78841 -7.7828,0.1212 -15.9951,-0.2373 -18.2494,-0.7965 z m 11.2051,-39.1573099 c 3.575,-1.8046 6.5,-3.6549 6.5,-4.1117 0,-0.4568 -2.1667,-3.2662 -4.8149,-6.2433001 l -4.815,-5.4127 -2.8384,2.7798 c -3.2858,3.2179 -4.5372,8.9753001 -2.8857,13.2757001 0.6323,1.64639999 1.4206,2.99339999 1.7518,2.99339999 0.3312,0 3.5272,-1.4766 7.1022,-3.28119999 z"
       id="path5521-59"
       inkscape:connector-curvature="0"
       sodipodi:nodetypes="ccsscsccsccccsscssccscss" />
    <path
       style="fill:#ffcc00"
       d="m -330.01413,36.132641 c -2.6866,-1.9462 -4.8448,-4.6043 -5.5237,-6.8032 -0.6128,-1.985 -1.3115,-12.6709 -1.5527,-23.7464609 -0.448,-20.5730391 -0.9099,-22.9893191 -5.3237,-27.8475491 l -2.0602,-2.2677 15.9324,-5.80872 c 17.3442,-6.32348 17.627,-6.32576 21.8188,-0.1734 3.2606,4.78574 4.7391,14.7505 4.7391,31.9422092 0,15.7055208 0.9662,20.4865208 5.0276,24.8767208 l 2.5543,2.7612 -14.9482,5.1442 c -8.2215,2.8294 -15.2421,5.1381 -15.6013,5.1306 -0.3591,-0.011 -2.6372,-1.4512 -5.0624,-3.2079 z"
       id="path5521-46"
       inkscape:connector-curvature="0"
       sodipodi:nodetypes="ccsscsssccscc" />
    <path
       style="fill:#ffcc00"
       d="m -228.51714,36.118608 c -7.8725,-5.3577 -8.1162,-6.2141 -8.7195,-30.6578504 -0.5362,-21.7235996 -0.5877,-22.1146996 -3.4886,-26.4920296 -2.638,-3.9809 -2.7512,-4.51852 -1.0885,-5.16955 30.7902,-12.05503 30.9993,-12.07854 34.6092,-3.89676 1.0744,2.43554 2.3547,4.42817 2.845,4.42817 0.4904,0 6.3613,-2.19858 13.0466,-4.88589 6.6853,-2.6872 12.2494,-4.76898 12.3648,-4.62616 0.9185,1.13738 16.81858,27.0161496 16.81858,27.3737296 0,1.04311 -25.14978,13.76311 -26.07788,13.18947 -0.5541,-0.34245 -2.786,-3.5504 -4.9597,-7.12876 -2.1738,-3.57848 -4.1387,-6.50624 -4.3666,-6.50624 -0.2278,0 -1.7194,0.59476 -3.3147,1.32156 l -2.9005,1.32156 0.4791,12.01268 c 0.5027,12.6015704 2.1082,17.8063704 6.3007,20.4245704 1.8435,1.1512 0.5369,1.8658 -10.6471,5.8225 -7.0117,2.4807 -13.7681,4.8305 -15.0142,5.2218 -1.4816,0.4652 -3.519,-0.1414 -5.8867,-1.7528 z"
       id="path5521-922"
       inkscape:connector-curvature="0"
       sodipodi:nodetypes="sscccsccscssccscccs" />
    <path
       style="fill:#ffcc00"
       d="m -492.38137,54.43577 c -1.7942,-0.3701 -2.3356,-1.035 -1.8573,-2.2812 3.8476,-10.0266 4.1971,-12.5516 2.9565,-21.35681 -0.6836,-4.8521 -2.025,-12.9857 -2.9807,-18.0745 -2.9302,-15.6009004 -0.3516,-32.43774 6.2543,-40.8357 1.8969,-2.4116 2.031,-3.08626 0.772,-3.88348 -3.1073,-1.96737 -16.9615,-0.10558 -27.7378,3.72706 l -4.4437,1.58051 0.9441,-6.02033 c 2.1331,-13.60277 10.7053,-24.41253 22.2352,-28.03912 7.7588,-2.44044 25.0855,-1.78156 41.0699,1.56168 14.6309,3.06013 24.5945,2.92929 35.2152,-0.4625 4.6626,-1.48908 8.9054,-2.71366 9.4286,-2.72128 1.5798,-0.0229 0.1223,11.11923 -2.049,15.6643 -5.4144,11.33291 -14.9492,15.87439 -35.0927,16.71461 l -13.3319,0.55612 -1.2005,4.45853 c -1.3026,4.83755 -0.7425,12.24965 1.0622,14.05429 0.7766,0.77665 3.1286,0.22837 7.5695,-1.76458 3.5434,-1.5902 8.3407,-2.88052 10.6605,-2.86735 4.9483,0.0283 13.4764,3.60079 13.4566,5.6374995 -0.011,0.77763 -2.155,5.3325001 -4.7722,10.12194019 l -4.7586,8.70809991 -7.1006,-0.3774 c -11.4602,-0.6091 -11.7384,-0.3806 -10.9459,8.9949004 0.9372,11.0876 -0.8911,17.8257 -6.8079,25.08921 -7.0011,8.5945 -19.3596,13.7099 -28.5458,11.8155 z"
       id="path5521-47"
       inkscape:connector-curvature="0"
       sodipodi:nodetypes="ccscccccssssccscscsccscsssc" />
    <path
       style="fill:#ffcc00"
       d="m 216.17324,34.374754 c -6.6213,-5.5714 -7.5664,-9.4395 -7.5932,-31.0777995 l -0.024,-19.2733005 -7.6605,-0.3198 -7.6605,-0.3198 24.2603,-17.7004 24.2602,-17.70029 0.3161,8.7201 0.3163,8.72019 9.2082,0 9.2084,0 0,9.2523 0,9.2523 -9.2524,0 -9.2523,0 0,16.35630045 0,16.35619955 4.6938,4.6938 4.6936,4.6937 -14.3325,5.0478 c -7.8828,2.7763 -15.0697,5.3307 -15.9706,5.6764 -0.9262,0.3554 -3.191,-0.678 -5.211,-2.3777 z"
       id="path5521-40-7"
       inkscape:connector-curvature="0"
       sodipodi:nodetypes="cscccccccccccccccccsscc" />
    <path
       style="fill:#ffcc00"
       d="m 696.31484,36.45107 c -17.3938,-4.8612 -29.8898,-19.60683 -29.9385,-35.3284302 -0.039,-12.7494998 7.4925,-23.4830998 21.4888,-30.6235998 6.27,-3.1987 19.6794,-6.3522 30.2009,-7.1024 l 9.2597,-0.6603 12.2384,14.8073 c 6.731,8.144 12.2383,14.9948997 12.2383,15.2240997 0,0.2293 -9.0487,4.7504001 -20.1083,10.0469001 -19.052,9.1242002 -20.0156,9.7327002 -18.3415,11.5825002 4.1533,4.5895 12.9887,5.1187 26.6706,1.5978 l 9.4468,-2.4311 -2.3714,3.8717 c -1.3043,2.1295 -4.0726,6.6689 -6.1516,10.0875 -3.1222,5.13363 -4.6381,6.52573 -8.7081,7.99783 -7.0758,2.5591 -28.144,3.1047 -35.9241,0.9302 z m 10.0785,-38.1788302 c 8.9603,-4.4976001 8.8985,-4.3316001 3.8473,-10.3217998 -2.4729,-2.9329 -5.1189,-5.3325 -5.8798,-5.3325 -2.7312,0 -5.8953,5.5809 -5.8953,10.3986997 0,4.4663001 0.8017,8.1060001 1.7853,8.1060001 0.2553,0 3.0194,-1.28269997 6.1425,-2.8504 z"
       id="path5521-92-8"
       inkscape:connector-curvature="0"
       sodipodi:nodetypes="ccsscssscscscccccsssc" />
  </g>
</svg>
