<?xml version="1.0" encoding="UTF-8" standalone="no"?>
<!-- Created with Inkscape (http://www.inkscape.org/) -->

<svg
   xmlns:dc="http://purl.org/dc/elements/1.1/"
   xmlns:cc="http://creativecommons.org/ns#"
   xmlns:rdf="http://www.w3.org/1999/02/22-rdf-syntax-ns#"
   xmlns:svg="http://www.w3.org/2000/svg"
   xmlns="http://www.w3.org/2000/svg"
   xmlns:sodipodi="http://sodipodi.sourceforge.net/DTD/sodipodi-0.dtd"
   xmlns:inkscape="http://www.inkscape.org/namespaces/inkscape"
   width="210mm"
   height="297mm"
   viewBox="0 0 744.09448819 1052.3622047"
   id="svg7059"
   version="1.1"
   inkscape:version="0.91 r13725"
   sodipodi:docname="firestone-letters.svg">
  <defs
     id="defs7061" />
  <sodipodi:namedview
     id="base"
     pagecolor="#ffffff"
     bordercolor="#666666"
     borderopacity="1.0"
     inkscape:pageopacity="0.0"
     inkscape:pageshadow="2"
     inkscape:zoom="0.35"
     inkscape:cx="-316.42857"
     inkscape:cy="520"
     inkscape:document-units="px"
     inkscape:current-layer="layer1"
     showgrid="false"
     inkscape:window-width="1920"
     inkscape:window-height="983"
     inkscape:window-x="0"
     inkscape:window-y="27"
     inkscape:window-maximized="1" />
  <metadata
     id="metadata7064">
    <rdf:RDF>
      <cc:Work
         rdf:about="">
        <dc:format>image/svg+xml</dc:format>
        <dc:type
           rdf:resource="http://purl.org/dc/dcmitype/StillImage" />
        <dc:title></dc:title>
      </cc:Work>
    </rdf:RDF>
  </metadata>
  <g
     inkscape:label="Layer 1"
     inkscape:groupmode="layer"
     id="layer1">
    <path
       style="fill:#000000"
       d="m -158.92799,223.91626 c -1.65168,0.79252 -2.48523,0.59152 -2.85967,-0.68973 -3.01319,-10.30812 -4.26484,-12.52873 -10.58625,-18.78257 -3.48338,-3.44619 -9.47812,-9.10463 -13.32137,-12.57429 -11.78265,-10.63689 -19.93126,-25.59444 -19.76329,-36.27787 0.0482,-3.06785 -0.25385,-3.68585 -1.7385,-3.55738 -3.66404,0.31723 -13.55851,10.19166 -19.81024,19.76943 l -2.5779,3.94956 -2.89612,-5.36173 c -6.54378,-12.11465 -6.27255,-25.90813 0.70357,-35.77852 4.69443,-6.64207 18.87871,-16.61478 33.6213,-23.63861 13.49422,-6.4291 21.34199,-12.569373 27.73699,-21.702143 2.80744,-4.00941 5.44114,-7.55407 5.85278,-7.8771 1.24301,-0.9753 6.83359,8.77237 7.85961,13.70384 2.55804,12.296633 -2.27651,21.686233 -17.79365,34.558103 l -10.26994,8.51922 1.74597,4.27449 c 1.89435,4.6379 6.83038,10.19564 9.35949,10.53808 1.08838,0.14743 2.62746,-1.71368 4.95327,-5.98967 1.85574,-3.41183 4.89077,-7.34472 6.74438,-8.73963 3.95401,-2.97528 12.90326,-5.29954 14.12139,-3.66713 0.46235,0.62535 1.51603,5.54809 2.33534,10.94413 l 1.48963,9.81102 -5.87787,4.00145 c -9.48674,6.45825 -9.56965,6.80858 -3.25924,13.78761 7.46275,8.25351 10.09025,14.72197 9.78324,24.08534 -0.36332,11.07921 -7.09672,22.63607 -15.55292,26.6941 z"
       id="path5521-9"
       inkscape:connector-curvature="0"
       sodipodi:nodetypes="ccscccccssssccscscsccscsssc"
       inkscape:transform-center-x="-22.857143"
       inkscape:transform-center-y="-42.857143" />
    <path
       style="fill:#000000"
       d="m -53.972757,131.5602 c -3.25416,-0.64499 -6.32587,-2.15757 -7.86178,-3.87135 -1.38644,-1.5471 -6.48799,-10.96256 -11.33678,-20.92319 -9.00676,-18.502203 -10.43637,-20.504103 -16.47687,-23.072573 l -2.8195,-1.19888 12.04557,-11.936793 c 13.11291,-12.99459 13.36886,-13.11489 19.74863,-9.27801 4.96254,2.98457 10.47107,11.41898 17.65738,27.036653 6.56507,14.267533 9.44131,18.206913 14.96601,20.497453 l 3.47465,1.44066 -11.42925,10.92172 c -6.28604,6.00702 -11.69878,11.03902 -12.02823,11.18236 -0.33082,0.14012 -3.00236,-0.21595 -5.93983,-0.79805 z"
       id="path5521-9-7"
       inkscape:connector-curvature="0"
       sodipodi:nodetypes="ccsscsssccscc" />
    <path
       style="fill:#000000"
       d="m 62.493733,76.988784 c -9.14321,-2.66143 -9.63974,-3.40054 -17.77043,-26.4603 -7.22593,-20.49361 -7.39582,-20.84963 -11.50789,-24.11569 -3.73949,-2.97032 -4.01335,-3.44661 -2.63338,-4.57978 25.55493,-20.98346986 25.74652,-21.07046986 31.70903,-14.4055299 1.77473,1.98407 3.60834,3.4832699 4.07462,3.3316899 0.46638,-0.15161 5.36996,-4.0575199 10.89696,-8.6799799 5.52703,-4.62237 10.17495,-8.32234 10.32885,-8.2222 1.22513,0.7977 24.346897,20.4930799 24.457447,20.8331399 0.32248,0.99201 -19.662777,20.8641 -20.722757,20.60549 -0.63282,-0.15437 -3.74715,-2.51516 -6.92063,-5.2462 -3.17362,-2.73113 -5.9474,-4.908 -6.16414,-4.83754 -0.21664,0.0704 -1.45129,1.09718 -2.74374,2.28158 l -2.34984,2.15352 4.16943,11.27608 c 4.37393,11.82882 7.50988,16.28229 12.30643,17.47609 2.10909,0.52487 1.08742,1.60841 -8.32543,8.82892 -5.90128,4.52689 -11.60024,8.85036 -12.66432,9.60773 -1.2652,0.900463 -3.39032,0.953453 -6.14021,0.15298 z"
       id="path5521-7"
       inkscape:connector-curvature="0"
       sodipodi:nodetypes="sscccsccscssccscscs"
       inkscape:transform-center-x="82.857143"
       inkscape:transform-center-y="34.285714" />
    <path
       style="fill:#000000"
       d="m 204.29731,39.186784 c -16.58598,-1.10158 -33.27941,-14.58213 -35.83158,-28.93517 -1.41678,-7.9901999 -0.76332,-13.2892199 2.41546,-19.4742199 6.05948,-11.7898101 18.84995,-20.5498401 39.04336,-26.7401501 l 10.89188,-3.33889 4.7929,3.78253 c 2.63602,2.08045 9.52294,7.83637 15.30433,12.79083 l 10.51143,9.0083 -18.04943,13.05086014 C 223.44851,6.5088141 215.55189,12.838984 215.82752,13.397914 c 0.27573,0.55891 2.31087,1.56273 4.52258,2.23075 5.38322,1.62602 14.081,-0.0467 23.34554,-4.4898 4.12147,-1.9764999 7.67107,-3.4700599 7.88795,-3.3188499 0.21699,0.15118 -1.38133,4.8100299 -3.55171,10.3531099 -5.35201,13.66864 -7.17732,14.9923 -25.62967,18.58721 -7.6401,1.4885 -15.78738,2.58034 -18.1049,2.42645 z m 4.14157,-40.5178199 c 3.20176,-2.40543 5.75564,-4.74141 5.67527,-5.19112 -0.0804,-0.44962 -2.70751,-2.83407 -5.83815,-5.2988201 l -5.69214,-4.48122 -2.30509,3.23582 c -2.66845,3.7457201 -2.88745,9.6335301 -0.50516,13.57629014 0.91207,1.50945996 1.92506,2.69679996 2.25109,2.63852996 0.32604,-0.0583 3.21242,-2.07406 6.41418,-4.47948 z"
       id="path5521-6"
       inkscape:connector-curvature="0"
       sodipodi:nodetypes="ccssccccsccccsscssccccss" />
    <path
       style="fill:#000000"
       d="m 633.45359,64.435664 c -8.88878,-8.41315 -15.98849,-18.94175 -17.47222,-25.91087 -4.31867,-20.28454 3.14933,-34.6121999 20.04349,-38.45412986 7.0683,-1.60747004 21.88468,-1.22393004 32.27005,0.83523 8.07439,1.60102996 12.27612,5.09009996 21.71918,18.03522986 7.19632,9.86524 12.15227,22.3092 11.50426,28.88639 -0.49491,5.02373 -5.98437,14.93795 -11.08983,20.02857 -5.45722,5.44138 -13.82015,7.31227 -29.60072,6.62192 -14.67567,-0.64202 -19.19382,-2.29956 -27.37421,-10.04234 z m 26.03557,-12.43908 c 4.57059,-3.6722 8.05253,-10.67693 8.34163,-16.78181 0.25118,-5.30269 -3.30401,-17.07171 -5.52141,-18.27783 -1.78836,-0.97275 -6.7397,4.10574 -10.19317,10.45478 -3.80959,7.00375 -4.10693,13.96509 -0.8845,20.70971 3.06705,6.41958 4.35786,7.02835 8.25745,3.89515 z"
       id="path5521-4"
       inkscape:connector-curvature="0"
       sodipodi:nodetypes="sssssssssccsssc" />
    <path
       style="fill:#000000"
       d="m 341.19211,19.232424 c -9.2795,-5.664 -17.6066,-10.7391999 -18.5047,-11.2783999 -1.3383,-0.8035 -0.844,-1.7757 2.7419,-5.3914 l 4.3745,-4.4111 12.3649,7.1627 c 9.2206,5.3413999 13.0213,6.9979999 14.9464,6.5147999 1.5857,-0.398 2.5817,-1.4474 2.5817,-2.7203999 0,-1.5122 -4.7157,-4.9268 -17.4417,-12.6298 -17.7527,-10.7457701 -21.7447,-14.1336501 -21.7447,-18.4540501 0,-3.90492 4.6778,-7.5658 23.2019,-18.1583 l 17.4451,-9.97554 6.6172,3.46788 c 3.6393,1.90729 12.1227,6.55033 18.852,10.31799 l 12.2349,6.8502 -4.2744,4.174 -4.2746,4.17389 -10.9672,-6.20962 c -10.7897,-6.10926 -15.2945,-7.0973 -15.2945,-3.35457 0,2.34248 2.4244,4.24802 17.4482,13.71337 7.7547,4.88578 15.3382,10.1220501 16.8524,11.6360501 6.1705,6.17050004 4.3376,11.0742 -6.6393,17.7620999 -7.1698,4.3684 -32.1278,17.3604 -33.0547,17.2067 -0.3264,-0.055 -8.1858,-4.7326 -17.4653,-10.3965 z"
       id="path5521-3"
       inkscape:connector-curvature="0"
       sodipodi:nodetypes="ssccsssssscsscccssccscs" />
    <path
       style="fill:#000000"
       d="m 487.22466,29.123214 c -5.23678,-6.88899 -5.30971,-10.87021 -0.58588,-31.9866399 l 4.20741,-18.8085701 -7.40345,-1.99361 -7.40344,-1.9936 27.55409,-11.94313 27.55395,-11.94295 -1.60579,8.5767 -1.60565,8.57693 8.9836,2.02136 8.9838,2.02139 -2.03104,9.02663 -2.03105,9.02672 -9.02672,-2.03105 -9.02663,-2.03104 -3.59046,15.9572501 -3.59048,15.9573499 3.54894,5.60972 3.54877,5.60954 -15.09099,1.77845 c -8.29997,0.97818 -15.87231,1.89263 -16.82712,2.03214 -0.98163,0.14341 -2.96434,-1.36194 -4.56195,-3.46361 z"
       id="path5521-0"
       inkscape:connector-curvature="0"
       sodipodi:nodetypes="cscccccccccccccccccsscc" />
    <path
       style="fill:#000000"
       d="m 805.5073,144.65329 c -2.3485,-7.74144 -1.4093,-10.71922 8.327,-26.39793 l 8.6228,-13.88579 -0.7889,-4.501423 -0.789,-4.50148 -6.3055,-1.61235 -6.3057,-1.61246 -6.6462,10.702693 c -7.6158,12.26412 -9.1105,16.48538 -7.8874,22.2735 1.0191,4.82152 2.678,4.82547 -16.3723,-0.0389 -14.67473,-3.74713 -15.1559,-4.08783 -16.22791,-11.49175 l -0.63183,-4.3635 11.79164,-18.988563 11.7916,-18.988643 -0.9476,-6.65962 -0.9475,-6.65965 15.7315,3.16963 c 8.6523,1.74327 15.9527,3.30694 16.2231,3.47486 0.2702,0.16781 0.6426,3.49132 0.8273,7.38568 l 0.336,7.080613 11.388,2.14017 c 23.0362,4.32936 30.433,10.25813 29.8832,23.952773 -0.2099,5.22768 -0.7172,6.3313 -9.7431,21.19209 -10.9122,17.9665 -11.5964,19.62618 -10.1954,24.73441 0.5649,2.05939 0.7411,3.8114 0.3918,3.893 -0.3494,0.0817 -7.2456,-1.0813 -15.3249,-2.58448 l -14.6898,-2.73279 z"
       id="path5521-4-3"
       inkscape:connector-curvature="0"
       sodipodi:nodetypes="sscccccscsscccccssccscsccccs" />
    <path
       style="fill:#000000"
       d="m 910.2616,223.3967 c -12.756,-12.78513 -16.3872,-31.76925 -8.6997,-45.48314 6.2346,-11.12117 18.0703,-16.76472 33.7688,-16.10087 7.0325,0.29744 20.2596,4.14451 29.7904,8.66442 l 8.3878,3.97779 3.3765,18.91119 c 1.857,10.40109 3.2843,19.07451 3.1716,19.2741 -0.1128,0.19967 -10.2151,-0.31248 -22.4497,-1.13821 -21.0762,-1.42225 -22.2145,-1.36615 -21.6662,1.06772 1.3601,6.03852 8.7936,10.84347 22.4386,14.50461 l 9.4214,2.5278 -3.9686,2.20545 c -2.1827,1.21308 -6.8253,3.80473 -10.3164,5.75938 -5.2429,2.93513 -7.2473,3.40201 -11.5152,2.68277 -7.4197,-1.2506 -26.0337,-11.13421 -31.7393,-16.853 z m 27.5477,-28.28984 c 10.0138,0.48914 9.8783,0.6033 8.4251,-7.09639 -0.7113,-3.76977 -1.8356,-7.16026 -2.4982,-7.53438 -2.3782,-1.34286 -7.8774,1.96116 -10.2462,6.15631 -2.196,3.88925 -3.2875,7.45279 -2.431,7.93641 0.2224,0.12553 3.2599,0.36761 6.7503,0.53805 z"
       id="path5521-4-3-0"
       inkscape:connector-curvature="0"
       sodipodi:nodetypes="ccsscssccscscccccsssc" />
    <path
       style="fill:#000000"
       d="m 842.68056,472.70657 c -6.0791,-5.3376 -6.8521,-8.3628 -6.8521,-26.8186 l 0,-16.3454 -3.0449,-3.4079 -3.045,-3.4079 -6.2073,1.9567 -6.2075,1.9567 0,12.5984 c 0,14.4365 0.9571,18.8111 5.0497,23.083 3.4093,3.5584 4.8207,2.6866 -13.9292,8.6041 -14.4434,4.5583 -15.0319,4.5227 -19.8485,-1.2016 l -2.8387,-3.3736 0,-22.3519 0,-22.352 -4.3183,-5.1577 -4.3182,-5.1577 15.0365,-5.6064 c 8.27,-3.0835 15.2968,-5.6063 15.6151,-5.6063 0.3181,0 2.3877,2.627 4.5991,5.8378 l 4.0208,5.8379 10.8034,-4.1895 c 21.8538,-8.4747 31.2653,-7.3402 38.0228,4.5838 2.5795,4.5518 2.7307,5.757 2.9027,23.1432 0.2079,21.0198 0.5022,22.7907 4.3872,26.3912 1.5663,1.4515 2.6403,2.8469 2.3866,3.1005 -0.2537,0.2537 -6.7258,2.9038 -14.3824,5.889 l -13.921,5.4279 z"
       id="path5521-92"
       inkscape:connector-curvature="0"
       sodipodi:nodetypes="sscccccscsscccccssscscsccccs" />
    <path
       style="fill:#000000"
       d="m 681.27186,474.14467 c -11.8284,-3.1433 -23.096,-8.9998 -27.7294,-14.4129 -13.4862,-15.7555 -13.772,-31.9101 -0.767,-43.3575 5.4411,-4.7895 18.6399,-11.5322 28.7469,-14.6856 7.858,-2.4518 13.2162,-1.3945 27.697,5.4651 11.0355,5.2276 21.3351,13.791 23.9086,19.8784 1.9657,4.6496 1.8807,15.9818 -0.1718,22.8932 -2.1939,7.3876 -8.6464,13.0271 -22.8388,19.961 -13.1987,6.4484 -17.9597,7.1512 -28.8455,4.2583 z m 16.9274,-23.3676 c 2.2604,-5.4098 1.9721,-13.2268 -0.691,-18.7278 -2.3131,-4.7783 -11.0597,-13.4181 -13.5839,-13.4181 -2.0358,0 -3.9587,6.8271 -3.9587,14.0546 0,7.9728 3.0651,14.2301 9.1186,18.6152 5.7617,4.1738 7.1865,4.0918 9.115,-0.5239 z"
       id="path5521-5"
       inkscape:connector-curvature="0"
       sodipodi:nodetypes="ssscsssssccsssc" />
    <path
       style="fill:#000000"
       d="m 394.6129,467.60114 c -9.2795,-5.664 -17.6066,-10.7392 -18.5047,-11.2784 -1.3383,-0.8035 -0.844,-1.7757 2.7419,-5.3914 l 4.3745,-4.4111 12.3649,7.1627 c 9.2206,5.3414 13.0213,6.998 14.9464,6.5148 1.5857,-0.398 2.5817,-1.4474 2.5817,-2.7204 0,-1.5122 -4.7157,-4.9268 -17.4417,-12.6298 -17.7527,-10.7458 -21.7447,-14.1336 -21.7447,-18.454 0,-3.905 4.6778,-7.5658 23.2019,-18.1583 l 17.4451,-9.9756 6.6172,3.4679 c 3.6393,1.9073 12.1227,6.5503 18.852,10.318 l 12.2349,6.8502 -4.2744,4.174 -4.2746,4.1739 -10.9672,-6.2096 c -10.7897,-6.1093 -15.2945,-7.0973 -15.2945,-3.3546 0,2.3425 2.4244,4.248 17.4482,13.7134 7.7547,4.8857 15.3382,10.122 16.8524,11.636 6.1705,6.1705 4.3376,11.0742 -6.6393,17.7621 -7.1698,4.3684 -32.1278,17.3605 -33.0547,17.2068 -0.3264,-0.055 -8.1858,-4.7326 -17.4653,-10.3966 z"
       id="path5521-40"
       inkscape:connector-curvature="0"
       sodipodi:nodetypes="ssccsssssscssccccsscscs" />
    <path
       style="fill:#000000"
       d="m 264.70465,474.89843 c -16.1335,-4.0023 -30.195,-20.2094 -30.1823,-34.7876 0.011,-8.1148 1.5865,-13.2162 5.8038,-18.7455 8.0391,-10.54 22.1712,-16.9132 43.1387,-19.4544 l 11.3094,-1.3707 4.0527,4.5668 c 2.2289,2.5117 7.9958,9.3894 12.8154,15.2837 l 8.7627,10.717 -20.0639,9.672 c -11.0351,5.3195 -19.9222,10.1618 -19.7492,10.7605 0.1731,0.5987 1.9999,1.9449 4.0596,2.9916 5.0132,2.5477 13.8696,2.4312 23.7713,-0.3127 4.4049,-1.2206 8.1619,-2.0664 8.3488,-1.8794 0.187,0.187 -2.206,4.492 -5.3177,9.5668 -7.6732,12.5139 -9.7029,13.4958 -28.4999,13.7884 -7.7828,0.1212 -15.9951,-0.2373 -18.2494,-0.7965 z m 11.2051,-39.1573 c 3.575,-1.8046 6.5,-3.6549 6.5,-4.1117 0,-0.4568 -2.1667,-3.2662 -4.8149,-6.2433 l -4.815,-5.4127 -2.8384,2.7798 c -3.2858,3.2179 -4.5372,8.9753 -2.8857,13.2757 0.6323,1.6464 1.4206,2.9934 1.7518,2.9934 0.3312,0 3.5272,-1.4766 7.1022,-3.2812 z"
       id="path5521-59"
       inkscape:connector-curvature="0"
       sodipodi:nodetypes="ccsscsccsccccsscssccscss" />
    <path
       style="fill:#000000"
       d="m -7.3933974,472.1449 c -2.6865996,-1.9462 -4.8447996,-4.6043 -5.5236996,-6.8032 -0.6128,-1.985 -1.3115,-12.6709 -1.5527,-23.7464 -0.448,-20.5731 -0.9099,-22.9894 -5.3237,-27.8476 l -2.0602,-2.2677 15.9323996,-5.8087 c 17.3442004,-6.3235 17.6270004,-6.3258 21.8188004,-0.1734 3.2606,4.7857 4.7391,14.7505 4.7391,31.9422 0,15.7055 0.9662,20.4865 5.0276,24.8767 l 2.5543,2.7612 -14.9482,5.1442 c -8.2215004,2.8294 -15.2421004,5.1381 -15.6013004,5.1306 -0.3591,-0.011 -2.6372,-1.4512 -5.0624,-3.2079 z"
       id="path5521-46"
       inkscape:connector-curvature="0"
       sodipodi:nodetypes="ccsscsssccscc" />
    <path
       style="fill:#000000"
       d="m 114.32767,473.14104 c -7.8725,-5.3577 -8.1162,-6.2141 -8.7195,-30.6579 -0.5362,-21.7236 -0.5877,-22.1147 -3.4886,-26.492 -2.637999,-3.9809 -2.751199,-4.5185 -1.0885,-5.1695 30.7902,-12.0551 30.9993,-12.0786 34.6092,-3.8968 1.0744,2.4355 2.3547,4.4282 2.845,4.4282 0.4904,0 6.3613,-2.1986 13.0466,-4.8859 6.6853,-2.6872 12.2494,-4.769 12.3648,-4.6262 0.9185,1.1374 16.8186,27.0162 16.8186,27.3738 0,1.0431 -25.1498,13.7631 -26.0779,13.1894 -0.5541,-0.3424 -2.786,-3.5504 -4.9597,-7.1287 -2.1738,-3.5785 -4.1387,-6.5063 -4.3666,-6.5063 -0.2278,0 -1.7194,0.5948 -3.3147,1.3216 l -2.9005,1.3215 0.4791,12.0127 c 0.5027,12.6016 2.1082,17.8064 6.3007,20.4246 1.8435,1.1512 0.5369,1.8658 -10.6471,5.8225 -7.0117,2.4807 -13.7681,4.8305 -15.0142,5.2218 -1.4816,0.4652 -3.519,-0.1414 -5.8867,-1.7528 z"
       id="path5521-922"
       inkscape:connector-curvature="0"
       sodipodi:nodetypes="sscccsccscssccscccs" />
    <path
       style="fill:#000000"
       d="m -161.70045,496.33564 c -1.7942,-0.3701 -2.3356,-1.035 -1.8573,-2.2812 3.8476,-10.0266 4.1971,-12.5516 2.9565,-21.3568 -0.6836,-4.8521 -2.025,-12.9857 -2.9807,-18.0745 -2.9302,-15.6009 -0.3516,-32.4377 6.2543,-40.8357 1.8969,-2.4116 2.031,-3.0863 0.772,-3.8835 -3.1073,-1.9674 -16.9615,-0.1056 -27.7378,3.7271 l -4.4437,1.5805 0.9441,-6.0203 c 2.1331,-13.60281 10.7053,-24.41258 22.2352,-28.03917 7.7588,-2.44044 25.0855,-1.78156 41.0699,1.56168 14.6309,3.06013 24.594496,2.92929 35.215196,-0.4625 4.6626,-1.48908 8.9054,-2.71366 9.4286,-2.72128 1.5798,-0.0229 0.1223,11.11924 -2.049,15.66431 -5.4144,11.33286 -14.9492,15.87436 -35.092696,16.71456 l -13.3319,0.5562 -1.2005,4.4585 c -1.3026,4.8375 -0.7425,12.2496 1.0622,14.0543 0.7766,0.7766 3.1286,0.2284 7.5695,-1.7646 3.5434,-1.5902 8.3407,-2.8805 10.6605,-2.8673 4.9483,0.028 13.476396,3.6007 13.456596,5.6375 -0.011,0.7776 -2.154996,5.3325 -4.772196,10.1219 l -4.7586,8.7081 -7.1006,-0.3774 c -11.4602,-0.6091 -11.7384,-0.3806 -10.9459,8.9949 0.9372,11.0876 -0.8911,17.8257 -6.8079,25.0892 -7.0011,8.5945 -19.3596,13.7099 -28.5458,11.8155 z"
       id="path5521-47"
       inkscape:connector-curvature="0"
       sodipodi:nodetypes="ccscccccssssccscscsccscsssc" />
    <path
       style="fill:#000000"
       d="m 540.89846,480.10131 c -6.6213,-5.5714 -7.5664,-9.4395 -7.5932,-31.0778 l -0.024,-19.2733 -7.6605,-0.3198 -7.6605,-0.3198 24.2603,-17.7004 24.2602,-17.7003 0.3161,8.7201 0.3163,8.7202 9.2082,0 9.2084,0 0,9.2523 0,9.2523 -9.2524,0 -9.2523,0 0,16.3563 0,16.3562 4.6938,4.6938 4.6936,4.6937 -14.3325,5.0478 c -7.8828,2.7763 -15.0697,5.3307 -15.9706,5.6764 -0.9262,0.3554 -3.191,-0.678 -5.211,-2.3777 z"
       id="path5521-40-7"
       inkscape:connector-curvature="0"
       sodipodi:nodetypes="cscccccccccccccccccsscc" />
    <path
       style="fill:#000000"
       d="m 950.39243,474.31031 c -17.3938,-4.8612 -29.8898,-19.6068 -29.9385,-35.3284 -0.039,-12.7495 7.4925,-23.4831 21.4888,-30.6236 6.27,-3.1987 19.6794,-6.3522 30.20086,-7.1024 l 9.2597,-0.6603 12.2384,14.8073 c 6.73101,8.144 12.23831,14.9949 12.23831,15.2241 0,0.2293 -9.04871,4.7504 -20.10831,10.0469 -19.052,9.1242 -20.0156,9.7327 -18.3415,11.5825 4.1533,4.5895 12.9887,5.1187 26.6706,1.5978 l 9.44681,-2.4311 -2.3714,3.8717 c -1.30431,2.1295 -4.07261,6.6689 -6.15161,10.0875 -3.1222,5.1336 -4.6381,6.5257 -8.7081,7.9978 -7.0758,2.5591 -28.14396,3.1047 -35.92406,0.9302 z m 10.0785,-38.1788 c 8.96026,-4.4976 8.89846,-4.3316 3.8473,-10.3218 -2.4729,-2.9329 -5.1189,-5.3325 -5.8798,-5.3325 -2.7312,0 -5.8953,5.5809 -5.8953,10.3987 0,4.4663 0.8017,8.106 1.7853,8.106 0.2553,0 3.0194,-1.2827 6.1425,-2.8504 z"
       id="path5521-92-8"
       inkscape:connector-curvature="0"
       sodipodi:nodetypes="ccsscssscscscccccsssc" />
  </g>
</svg>
