<?xml version="1.0" encoding="UTF-8" standalone="no"?>
<!-- Created with Inkscape (http://www.inkscape.org/) -->

<svg
   xmlns:dc="http://purl.org/dc/elements/1.1/"
   xmlns:cc="http://creativecommons.org/ns#"
   xmlns:rdf="http://www.w3.org/1999/02/22-rdf-syntax-ns#"
   xmlns:svg="http://www.w3.org/2000/svg"
   xmlns="http://www.w3.org/2000/svg"
   xmlns:sodipodi="http://sodipodi.sourceforge.net/DTD/sodipodi-0.dtd"
   xmlns:inkscape="http://www.inkscape.org/namespaces/inkscape"
   width="210mm"
   height="297mm"
   viewBox="0 0 744.09448819 1052.3622047"
   id="svg6385"
   version="1.1"
   inkscape:version="0.91 r13725"
   sodipodi:docname="firestone-logo.svg">
  <defs
     id="defs6387" />
  <sodipodi:namedview
     id="base"
     pagecolor="#ffffff"
     bordercolor="#666666"
     borderopacity="1.0"
     inkscape:pageopacity="0.0"
     inkscape:pageshadow="2"
     inkscape:zoom="0.98994949"
     inkscape:cx="188.78457"
     inkscape:cy="941.61685"
     inkscape:document-units="px"
     inkscape:current-layer="layer1"
     showgrid="false"
     inkscape:window-width="1920"
     inkscape:window-height="983"
     inkscape:window-x="0"
     inkscape:window-y="27"
     inkscape:window-maximized="1" />
  <metadata
     id="metadata6390">
    <rdf:RDF>
      <cc:Work
         rdf:about="">
        <dc:format>image/svg+xml</dc:format>
        <dc:type
           rdf:resource="http://purl.org/dc/dcmitype/StillImage" />
        <dc:title></dc:title>
      </cc:Work>
    </rdf:RDF>
  </metadata>
  <g
     inkscape:label="Layer 1"
     inkscape:groupmode="layer"
     id="layer1">
    <path
       style="fill:#000000"
       d="m 13.191805,82.441117 c -5.2988295,-3.09655 -8.6752495,-5.30863 -12.63042954,-8.2748 -2.20763996,-1.65562 -5.67922956,-4.50493 -7.34205956,-6.02601 -8.3044699,-7.59646 -14.4178799,-15.01454 -19.7145309,-23.92224 -1.60078,-2.69211 -4.19019,-7.63083 -5.08147,-9.69165 -0.18613,-0.43026 -0.53368,-1.22136 -0.77221,-1.7579 -2.25096,-5.06018 -4.32678,-11.21767 -5.86809,-17.40536 -0.93066,-3.73657 -1.36685,-5.9995604 -2.2967,-11.9116604 -0.0258,-0.16943 -0.16278,-1.37086 -0.30275,-2.66984004 -0.7866,-7.30604996 -0.94247,-12.98646956 -0.50843,-18.53245956 0.0855,-1.10009 0.16522,-2.00352 0.17608,-2.00784 0.0136,-0.004 0.13441,-0.0794 0.27614,-0.16687 0.23799,-0.14745 2.13515,-1.20553 3.6967,-2.06183 0.68586,-0.37594 5.31266,-2.6943 5.95591,-2.98419 0.19767,-0.0891 0.68275,-0.30763 1.07822,-0.48571 6.40896,-2.88722 12.469971,-5.01643 18.945591,-6.65571 6.3010199,-1.59502 12.05627946,-2.48123 19.5617895,-3.01201 2.5672795,-0.18156 9.3604495,-0.15137 12.1684395,0.0542 4.29064,0.31401 6.75135,0.59796 10.47396,1.20831 10.5515,1.73017 20.75462,5.00413 30.08709,9.6543 3.6193,1.80348 7.58386,4.08559 7.79171,4.48534 0.11133,0.2141 0.29692,3.5586 0.38272,6.89859 0.14961,5.8220096 -0.43241,13.8809596 -1.45742,20.1779196 -2.89746,17.8011204 -9.82937,33.5637604 -20.97632,47.6979104 -6.0804,7.71 -13.8607,15.14564 -21.8862,20.91684 -1.36726,0.98307 -4.09623,2.83451 -5.03178,3.41358 -1.85058,1.14555 -2.30633,1.42044 -3.23469,1.95167 -0.56463,0.3232 -1.41953,0.79912 -1.89958,1.05759 l -0.87282,0.46997 -0.71887,-0.42005 z m 3.02846,-7.1357 c 6.50495,-3.96739 14.11364,-10.20775 19.76002,-16.20637 2.36269,-2.50997 2.46043,-2.61768 3.85024,-4.24271 8.93509,-10.44784 15.57091,-22.37266 19.50138,-35.0446 1.06452,-3.43188 2.1247,-7.56615 2.57611,-10.0450104 0.10862,-0.59301 0.31293,-1.70203 0.45561,-2.46447 0.43934,-2.34895 1.05759,-7.26817004 1.30319,-10.37135 0.13862,-1.74926 0.24288,-11.9605196 0.13033,-12.7798696 l -0.0842,-0.61149 -0.77005,-0.45561 c -5.97995,-3.53736 -15.1916,-7.24701 -23.14445,-9.32045 -3.99428,-1.04145 -10.3936,-2.29957 -13.20661,-2.59644 -0.53653,-0.0566 -1.80727,-0.19479 -2.82387,-0.30692 -3.61414,-0.39894 -5.22714,-0.4737 -10.21737,-0.4737 -4.3387195,0 -6.4162895,0.0755 -8.5742395,0.31145 -3.6789,0.40233 -5.30303004,0.59394 -6.10987,0.72086 -9.1635895,1.44182 -17.4379295,3.88732 -26.2877805,7.76948 -1.65264,0.72496 -6.10878,2.91249 -7.3574,3.6116 -1.036,0.58026 -1.04224,0.58612 -1.08731,1.01648 -0.14677,1.4072 -0.17637,6.6082796 -0.0543,9.5205796 0.16318,3.88865 0.73041,8.85087 1.53141,13.4006 1.49882,8.5117004 4.15121,17.1580104 7.6,24.7738504 0.80535,1.77874 2.72489,5.65043 3.34289,6.74294 1.11787,1.97612 1.435431,2.52735 1.987431,3.45019 7.02125,11.73767 16.5518099,21.93481 28.2333895,30.20798 1.695,1.2005 4.6816495,3.16723 6.1401495,4.04322 1.2649,0.75979 0.86303,0.83886 3.3046,-0.65024 z"
       id="path4709-1"
       inkscape:connector-curvature="0"
       sodipodi:nodetypes="cssscccccccccscsscccsssscccsccccccccccccccscsccsccccccccccc" />
    <path
       style="fill:#000000"
       d="m -0.95616454,57.794797 c -0.74220996,-0.0846 -1.89958956,-0.30302 -1.89958956,-0.35868 0,-0.0173 0.21423,-0.4184 0.47639,-0.89123 1.52570956,-2.75272 2.83716956,-6.3001 3.33596956,-9.02323 0.21368004,-1.1674 0.18124004,-5.46306 -0.053,-6.9685 -0.25428,-1.63596 -0.81227,-3.84059 -1.22865,-4.85472 -1.51144996,-3.68103 -2.55029956,-8.84543 -2.70316956,-13.43768 -0.13781,-4.14351 0.8887,-8.802 3.07990956,-13.9779004 0.76937,-1.81735 2.28245004,-4.7208 3.09037004,-5.92985 0.41938,-0.62772 0.72634,-1.16344 0.68235,-1.19075 -0.0435,-0.0273 -0.514,-0.11988 -1.04416,-0.20579004 -1.25444,-0.20342 -3.93603,-0.20331 -5.5027396,0 -4.67635,0.60760004 -9.9996099,2.60989004 -14.5522799,5.47372004 -0.55975,0.35211 -1.05407,0.60389 -1.09832,0.55943 -0.14324,-0.14375 -0.32027,-2.82459 -0.25293,-3.82888 0.36085,-5.37432 1.89416,-9.56966 5.04739,-13.8113496 3.6621999,-4.92617 7.9016699,-7.6144 13.94977946,-8.84542 1.04306004,-0.21225 1.64653004,-0.26174 3.80665004,-0.31226 3.08942,-0.0722 4.30178,0.03 6.8596895,0.57814 1.80973,0.38793 3.99075,0.84889 8.59475,1.81672 1.21426,0.25517 3.03945,0.64445 4.05605,0.86493 1.85098,0.4014 5.03639,0.88793 7.44482,1.13684 1.66826,0.17251 5.36223,0.17518 6.36565,0.006 2.47008,-0.41969 6.88875,-2.65147 10.29097,-5.19748 l 0.48345,-0.36187 0.0556,0.33168 c 0.61909,3.69055 0.3883,8.12712 -0.57196,10.9905396 -1.21291,3.61693 -3.45028,6.37684 -7.1767,8.85249996 -2.89161,1.92117004 -5.05812,2.87491004 -8.02413,3.53252004 -2.17953,0.48326 -3.55617,0.64396 -6.00235,0.70095 -2.52464,0.0588 -4.14742,-0.0489 -6.66487,-0.44247 -0.90363,-0.1412 -1.73532,-0.26669 -1.84814,-0.2787 -0.17392,-0.0187 -0.26283,0.14509 -0.5808,1.06845 -0.42778,1.24189 -1.06817,3.98497 -1.26801,5.43019 -0.0815,0.58519 -0.12355,1.6945204 -0.1073,2.7725304 0.0231,1.54172 0.0638,1.93564 0.28741,2.77252 0.14296,0.53655 0.37539,1.23563 0.51672,1.55355 l 0.25686,0.57803 1.25663,-0.61285 c 2.33702,-1.13991 5.2862,-2.10867 7.8885,-2.59128 3.1964,-0.59292 7.43654,-0.39474 10.07958,0.47112 0.3671,0.12029 0.68573,0.23444 0.708,0.25375 0.0217,0.0193 -0.10321,0.37121 -0.27912,0.78184 -0.17582,0.41075 -0.69606,1.69403 -1.15589,2.85182 -0.84187,2.11914 -1.80878,4.54521 -3.17169,7.95822 -0.40608,1.01659 -0.85654,2.1487 -1.00099,2.51581 -0.14458,0.36711 -0.27002,0.67721 -0.27899,0.68912 -0.0136,0.0123 -0.45291,-0.19756 -0.98699,-0.46537 -1.66147,-0.8333 -2.89799,-1.14794 -4.51126,-1.14794 -1.18684,0 -2.17968,0.22881 -3.38661,0.78062 -0.72878,0.33303 -0.83277,0.41271 -0.78105,0.59765 0.20284,0.72661 0.5808,2.85365 0.68343,3.84767 0.15396,1.49068 0.0651,4.76881 -0.16277,6.01825 -0.45183,2.47503 -1.02094,4.25265 -1.96585,6.14094 -1.0037,2.0058 -2.16027,3.5501 -4.09121,5.46264 -4.61025,4.56593 -9.8726895,7.13731 -15.09724954,7.37666 -0.62124,0.0284 -1.45293,0.0149 -1.84828,-0.0301 z"
       id="path4709-1-8"
       inkscape:connector-curvature="0"
       sodipodi:nodetypes="cscccccsccccscccccccccccccscssccccccccccccccccccsccccscccc" />
    <path
       style="fill:#000000"
       d="m 203.16296,87.68681 c -4.8003,-2.80522 -7.85906,-4.80918 -11.44213,-7.49628 -1.99994,-1.49986 -5.14491,-4.0811 -6.6513,-5.45907 -7.52317,-6.88177 -13.06141,-13.60194 -17.85974,-21.67158 -1.45018,-2.43883 -3.79597,-6.91291 -4.6034,-8.77984 -0.16862,-0.38978 -0.48347,-1.10645 -0.69956,-1.59251 -2.03918,-4.58411 -3.9197,-10.16229 -5.316,-15.76783 -0.8431,-3.38502 -1.23826,-5.43511 -2.08062,-10.79098 -0.0234,-0.15349 -0.14747,-1.24189 -0.27427,-2.41866 -0.7126,-6.61868 -0.8538,-11.76467 -0.4606,-16.78888 0.0775,-0.99659 0.14968,-1.81503 0.15952,-1.81894 0.0123,-0.004 0.12176,-0.0719 0.25016,-0.15117 0.2156,-0.13358 1.93427,-1.09211 3.3489,-1.86785 0.62134,-0.34057 4.81284,-2.44081 5.39557,-2.70343 0.17907,-0.0807 0.61851,-0.27869 0.97678,-0.44001 5.80599,-2.61559 11.29676,-4.54448 17.16314,-6.02953 5.70821,-1.44496 10.922,-2.24779 17.72138,-2.72863 2.32574,-0.16448 8.47979,-0.13713 11.0236,0.0491 3.88697,0.28447 6.11617,0.5417 9.48855,1.09463 9.55879,1.56739 18.80198,4.53333 27.25643,8.746 3.27879,1.6338 6.87035,3.70121 7.05865,4.06335 0.10085,0.19396 0.26898,3.2238 0.34671,6.24955 0.13553,5.27427 -0.39173,12.57501 -1.3203,18.27954 -2.62486,16.12635 -8.9046,30.40601 -19.00282,43.21038 -5.50835,6.98463 -12.55666,13.72071 -19.8271,18.94893 -1.23863,0.89058 -3.71085,2.56783 -4.55838,3.09242 -1.67647,1.03778 -2.08935,1.28681 -2.93036,1.76806 -0.51151,0.29279 -1.28598,0.72393 -1.72087,0.95809 l -0.7907,0.42575 -0.65124,-0.38053 z m 2.74354,-6.46436 c 5.89295,-3.59412 12.7858,-9.24737 17.90095,-14.68163 2.1404,-2.27382 2.22895,-2.3714 3.488,-3.84354 8.09446,-9.46489 14.10597,-20.26779 17.66665,-31.74753 0.96437,-3.109 1.9248,-6.85431 2.33374,-9.09995 0.0984,-0.53722 0.28349,-1.5419 0.41275,-2.23261 0.398,-2.12796 0.95809,-6.58436 1.18058,-9.39559 0.12558,-1.58469 0.22003,-10.83524997 0.11807,-11.57751 l -0.0763,-0.55396 -0.6976,-0.41275 c -5.41734,-3.20455 -13.76234,-6.56519 -20.96697,-8.44356 -3.61849,-0.94347 -9.41574,-2.08322 -11.9641,-2.35216 -0.48605,-0.0513 -1.63724,-0.17646 -2.55819,-0.27804 -3.27412,-0.36141 -4.73536,-0.42914 -9.2561,-0.42914 -3.93052,0 -5.81263,0.0684 -7.76756,0.28215 -3.33278,0.36448 -4.80411,0.53806 -5.53504,0.65304 -8.30146,1.30617 -15.79733,3.52159 -23.81456,7.03851 -1.49716,0.65676 -5.53406,2.63848 -6.6652,3.27181 -0.93853,0.52567 -0.94419,0.53098 -0.98502,0.92085 -0.13296,1.27481003 -0.15977,5.98656 -0.0492,8.62486 0.14783,3.5228 0.66169,8.01816 1.38733,12.13985 1.35781,7.7109 3.76066,15.54374 6.88498,22.44307 0.72958,1.61139 2.46853,5.11882 3.02838,6.10855 1.0127,1.7902 1.30038,2.28957 1.80045,3.12558 6.36068,10.63337 14.99458,19.87114 25.57713,27.36595 1.53553,1.08755 4.24119,2.86925 5.56247,3.66281 1.1459,0.68831 0.78184,0.75994 2.9937,-0.58906 z M 190.97662,66.22707 c -0.67238,-0.0766 -1.72087,-0.27451 -1.72087,-0.32493 0,-0.0157 0.19407,-0.37904 0.43157,-0.80738 1.38216,-2.49374 2.57024,-5.70737 3.02211,-8.17431 0.19358,-1.05756 0.16419,-4.94908 -0.048,-6.31288 -0.23036,-1.48205 -0.73585,-3.47926 -1.11306,-4.39798 -1.36925,-3.33471 -2.31036,-8.01323 -2.44885,-12.17343 -0.12484,-3.75368 0.80509,-7.97389 2.79015,-12.66283 0.69698,-1.64637 2.06771,-4.27666 2.79962,-5.37196 0.37992,-0.56866 0.658,-1.05398 0.61815,-1.07872 -0.0394,-0.0247 -0.46564,-0.1086 -0.94592,-0.18643 -1.13642,-0.18428 -3.56572,-0.18418 -4.98503,0 -4.23639,0.55044 -9.05883,2.36435 -13.18317,4.95874 -0.50709,0.31898 -0.9549,0.54708 -0.99499,0.5068 -0.12976,-0.13023 -0.29014,-2.55885 -0.22913,-3.46865 0.3269,-4.86869 1.71595,-8.66933 4.57252,-12.51195 3.31765,-4.46269997 7.15826,-6.89802 12.63735,-8.01322 0.94493,-0.19228 1.49162,-0.23712 3.44851,-0.28288 2.79876,-0.0654 3.89706,0.0272 6.21432,0.52374 1.63946,0.35144 3.61529,0.76903 7.78613,1.6458 1.10002,0.23117 2.7535,0.58382 3.67445,0.78356 1.67684,0.36363003 4.56256,0.80439003 6.7444,1.02988003 1.5113,0.15628 4.85774,0.1587 5.76675,0.005 2.23769,-0.3802 6.24064,-2.40201003 9.32277,-4.70849003 l 0.43797,-0.32782 0.0504,0.30047 c 0.56084,3.34334 0.35176,7.36251 -0.51815,9.95653 -1.0988,3.27664 -3.12567,5.77689 -6.5015,8.01964 -2.61956,1.74042 -4.58224,2.60443 -7.2692,3.20017 -1.97448,0.43779 -3.2216,0.58337 -5.43764,0.635 -2.28712,0.0533 -3.75722,-0.0443 -6.03782,-0.40084 -0.81862,-0.12792 -1.57206,-0.2416 -1.67427,-0.25248 -0.15755,-0.0169 -0.2381,0.13144 -0.52615,0.96793 -0.38754,1.12505 -0.96768,3.61005 -1.14872,4.9193 -0.0738,0.53014 -0.11192,1.5351 -0.0972,2.51169 0.0209,1.39667 0.0578,1.75353 0.26037,2.51167 0.12951,0.48607 0.34007,1.11938 0.4681,1.40739 l 0.2327,0.52365 1.1384,-0.55519 c 2.11715,-1.03267 4.78886,-1.91028 7.14633,-2.34749 2.89568,-0.53714 6.7369,-0.3576 9.13127,0.4268 0.33257,0.10897 0.62122,0.21238 0.64139,0.22987 0.0197,0.0175 -0.0935,0.33629 -0.25286,0.70829 -0.15927,0.3721 -0.63057,1.53465 -1.04714,2.58351 -0.76266,1.91977 -1.6386,4.11759 -2.87329,7.20949 -0.36787,0.92095 -0.77595,1.94655 -0.90681,2.27912 -0.13098,0.33257 -0.24462,0.6135 -0.25274,0.62429 -0.0123,0.0111 -0.4103,-0.17898 -0.89414,-0.42159 -1.50515,-0.7549 -2.62534,-1.03994 -4.08683,-1.03994 -1.07518,0 -1.97461,0.20728 -3.06799,0.70718 -0.66021,0.3017 -0.75442,0.37388 -0.70756,0.54142 0.18375,0.65825 0.52615,2.58517 0.61913,3.48567 0.13947,1.35044 0.059,4.32015 -0.14746,5.45204 -0.40932,2.24218 -0.92489,3.85255 -1.7809,5.56319 -0.90927,1.81709 -1.95702,3.2161 -3.7063,4.9487 -4.1765,4.13636 -8.94384,6.46582 -13.67686,6.68265 -0.5628,0.0257 -1.31624,0.0135 -1.67439,-0.0273 z"
       id="path4709"
       inkscape:connector-curvature="0" />
  </g>
</svg>
